Coordinates
version=1
nRows=26
nColumns=24
inDegrees=yes

Units are S.I. units (second, meters, Newtons, ...)
Angles are in degrees.

endheader
time	pelvis_tilt	pelvis_list	pelvis_rotation	pelvis_tx	pelvis_ty	pelvis_tz	hip_flexion_r	hip_adduction_r	hip_rotation_r	knee_angle_r	ankle_angle_r	subtalar_angle_r	mtp_angle_r	hip_flexion_l	hip_adduction_l	hip_rotation_l	knee_angle_l	ankle_angle_l	subtalar_angle_l	mtp_angle_l	lumbar_extension	lumbar_bending	lumbar_rotation
      1.53000000	     -9.47912846	     -0.99876846	      4.44547976	     -0.26635941	      1.27823277	     -0.90802663	     33.25249251	      3.30325088	      4.72254143	    -21.44466657	     -0.17612916	    -21.72015763	      2.45722503	      2.50308523	      6.79922996	     14.03712095	     -2.90215669	      3.97959571	    -20.79811628	      1.68366318	      0.94061766	     -1.28906415	    -10.02657544
      1.53500000	     -9.57924972	     -0.83424950	      4.10380833	     -0.26018673	      1.27720701	     -0.90762243	     33.26460472	      3.34193097	      5.74947247	    -19.70114675	     -0.39244383	    -21.75545509	      2.22779420	      2.04197821	      6.91812717	     13.46665589	     -2.72574926	      4.40800866	    -20.48280898	      1.87459255	      1.14340855	     -1.38917088	     -9.67171225
      1.54000000	     -9.69623016	     -0.68334798	      3.81652338	     -0.25400133	      1.27613580	     -0.90726230	     33.22752507	      3.34554412	      6.73713615	    -17.86279125	     -0.82779050	    -21.85873857	      1.97291854	      1.65811198	      7.04196896	     12.90323046	     -2.66578411	      4.97527269	    -20.00754565	      2.15076885	      1.37149690	     -1.48926528	     -9.32464473
      1.54500000	     -9.81269331	     -0.50888734	      3.55459151	     -0.24779353	      1.27499290	     -0.90692513	     33.17393169	      3.29300356	      7.69796732	    -16.04256390	     -1.18035509	    -21.82995634	      1.79505863	      1.26281944	      7.19702347	     12.38191432	     -2.58677472	      5.45149534	    -19.62128687	      2.38281011	      1.59946618	     -1.60981594	     -9.02910091
      1.55000000	     -9.94653632	     -0.31937982	      3.31358750	     -0.24157796	      1.27377606	     -0.90659510	     33.13887573	      3.19811380	      8.62874416	    -14.26738398	     -1.51967032	    -21.69096484	      1.65349757	      0.88030977	      7.37165581	     11.91300845	     -2.49544740	      5.91505597	    -19.24878763	      2.60763625	      1.84607196	     -1.75067637	     -8.76590917
      1.55500000	    -10.08111431	     -0.11829369	      3.09766319	     -0.23538486	      1.27251476	     -0.90630203	     33.11061381	      3.06253396	      9.49978120	    -12.54842746	     -1.84757302	    -21.44471173	      1.53422133	      0.51841070	      7.56870439	     11.48222238	     -2.44071201	      6.34440229	    -18.90982947	      2.82185287	      2.09520687	     -1.90426657	     -8.49296608
      1.56000000	    -10.22491204	      0.08103838	      2.90296035	     -0.22920139	      1.27121084	     -0.90601590	     33.10356847	      2.90907146	     10.31590867	    -10.90033560	     -2.17717612	    -21.15412864	      1.40411132	      0.19090574	      7.77053227	     11.05041601	     -2.43185019	      6.81153051	    -18.51976888	      3.06715596	      2.35482033	     -2.05819452	     -8.23861725
      1.56500000	    -10.38716756	      0.27291328	      2.74337654	     -0.22306023	      1.26987331	     -0.90576680	     33.13209865	      2.73692374	     11.06817697	     -9.33704185	     -2.47475118	    -20.81538691	      1.25619865	     -0.08687613	      7.97214425	     10.64613989	     -2.47061996	      7.30496880	    -18.09787733	      3.34128427	      2.61937200	     -2.20336933	     -8.02513308
      1.57000000	    -10.56544523	      0.45247073	      2.63570900	     -0.21697396	      1.26852849	     -0.90565286	     33.20804334	      2.53227295	     11.65982719	     -7.88904795	     -2.72052820	    -20.25958140	      1.24113957	     -0.34363483	      8.17735694	     10.45838004	     -2.50698368	      7.61087288	    -18.09678867	      3.39779230	      2.89520850	     -2.32665367	     -7.87537226
      1.57500000	    -10.70742786	      0.65133514	      2.46464012	     -0.21084758	      1.26717753	     -0.90529776	     33.25902992	      2.37503671	     12.38323974	     -6.54069854	     -2.93887249	    -19.88608241	      0.99759463	     -0.61824431	      8.37903106	      9.91627951	     -2.59022740	      8.20312930	    -17.36469105	      3.83496167	      3.14345229	     -2.48575953	     -7.63357977
      1.58000000	    -10.87464900	      0.82758599	      2.37489870	     -0.20480220	      1.26582930	     -0.90515349	     33.36545447	      2.18020758	     12.91168138	     -5.31635316	     -3.15835534	    -19.33586285	      0.97663882	     -0.87209404	      8.57985674	      9.74410124	     -2.64679620	      8.48601077	    -17.34516293	      3.89866957	      3.40302815	     -2.61067484	     -7.49337944
      1.58500000	    -11.03847000	      1.01616616	      2.24014398	     -0.19872394	      1.26445501	     -0.90483213	     33.51193059	      2.02846560	     13.49845598	     -4.26749344	     -3.22806592	    -18.79347792	      0.74175645	     -1.09948985	      8.77694748	      9.27356626	     -2.76393617	      9.03137701	    -16.68195327	      4.31192331	      3.66369762	     -2.75425974	     -7.29369625
      1.59000000	    -11.18629324	      1.16271634	      2.21071713	     -0.19273297	      1.26314355	     -0.90475960	     33.62763696	      1.84700235	     13.92063627	     -3.28340672	     -3.37135156	    -18.34472333	      0.73696777	     -1.34112765	      8.95131355	      9.19320680	     -2.87425259	      9.26180573	    -16.71023687	      4.34167172	      3.88292199	     -2.83713375	     -7.23108040
      1.59500000	    -11.38260765	      1.34359000	      2.06692279	     -0.18669025	      1.26174455	     -0.90438750	     33.91283109	      1.74766974	     14.38625250	     -2.60979317	     -3.37706714	    -17.66064861	      0.57527306	     -1.50746641	      9.14673469	      8.71039190	     -3.02814864	      9.72816252	    -16.21419567	      4.67912286	      4.17844953	     -2.98064345	     -6.96955385
      1.60000000	    -11.53468445	      1.49336341	      2.02840327	     -0.18073739	      1.26044100	     -0.90415997	     34.14074152	      1.62408168	     14.73513630	     -2.03133651	     -3.41618533	    -17.07896984	      0.37992384	     -1.68622528	      9.31324669	      8.44857711	     -3.24309777	     10.18326306	    -15.79862415	      4.98282692	      4.39597091	     -3.08683458	     -6.89892433
      1.60500000	    -11.68304304	      1.64280960	      1.98871013	     -0.17481482	      1.25915539	     -0.90392120	     34.40572347	      1.52420075	     15.07991775	     -1.63560771	     -3.41692412	    -16.54769419	      0.23701554	     -1.87043694	      9.48079196	      8.22893898	     -3.44688605	     10.51404358	    -15.55190240	      5.19177213	      4.59692066	     -3.19091988	     -6.81424855
      1.61000000	    -11.84109347	      1.78088950	      1.96673105	     -0.16890282	      1.25788716	     -0.90367445	     34.71660890	      1.44886848	     15.38141229	     -1.41967804	     -3.39343330	    -16.03616938	      0.09572712	     -2.02138762	      9.63661223	      8.03395498	     -3.69157096	     10.85223558	    -15.30311628	      5.39723363	      4.80779748	     -3.28997811	     -6.75810867
      1.61500000	    -11.97332462	      1.90911135	      1.96984324	     -0.16303593	      1.25668379	     -0.90343821	     35.01906429	      1.38784593	     15.64283266	     -1.35006676	     -3.39080193	    -15.59649553	     -0.00126200	     -2.16484776	      9.78513554	      7.86565381	     -3.99805541	     11.14148209	    -15.14878801	      5.55330288	      4.97897923	     -3.38777812	     -6.68132156
      1.62000000	    -12.12926664	      2.02974215	      1.97566031	     -0.15716720	      1.25548249	     -0.90318254	     35.41140751	      1.36314460	     15.88759001	     -1.52307017	     -3.31596998	    -15.11645832	     -0.16436695	     -2.28595800	      9.91737243	      7.70873930	     -4.29197971	     11.46041551	    -14.85821511	      5.77926779	      5.16893100	     -3.46180065	     -6.68624188
      1.62500000	    -12.26303413	      2.13661471	      2.01322936	     -0.15129673	      1.25435737	     -0.90292949	     35.77833497	      1.34937581	     16.08617975	     -1.80636445	     -3.26837828	    -14.70867680	     -0.33292922	     -2.40609922	     10.03483452	      7.57991870	     -4.63349291	     11.74611730	    -14.64267883	      5.97717746	      5.33040215	     -3.54334644	     -6.69327510
      1.63000000	    -12.38495034	      2.22588952	      2.07375822	     -0.14543303	      1.25329255	     -0.90270621	     36.14422104	      1.35313821	     16.25778118	     -2.22177515	     -3.24135530	    -14.33934448	     -0.50649894	     -2.51698560	     10.13305971	      7.49250867	     -5.01366025	     12.00099523	    -14.45175692	      6.16528310	      5.47395743	     -3.59957693	     -6.72943845
      1.63500000	    -12.46215383	      2.29547911	      2.16783212	     -0.13960700	      1.25233205	     -0.90251077	     36.45565513	      1.36611174	     16.41577182	     -2.72846387	     -3.24723609	    -14.07636216	     -0.62967457	     -2.63833870	     10.21153348	      7.43732255	     -5.46066145	     12.22166470	    -14.35536735	      6.30236027	      5.54688529	     -3.63865332	     -6.80928863
      1.64000000	    -12.55738581	      2.35840055	      2.25695459	     -0.13367732	      1.25142265	     -0.90227105	     36.81480403	      1.41070643	     16.46281106	     -3.39713262	     -3.27286592	    -13.64010568	     -1.01807288	     -2.75591238	     10.26750520	      7.33580930	     -5.87847186	     12.41824537	    -14.04732464	      6.61143457	      5.66464219	     -3.68103395	     -6.86158377
      1.64500000	    -12.63952608	      2.39838746	      2.41258664	     -0.12781662	      1.25059101	     -0.90213822	     37.12857623	      1.43444835	     16.52944474	     -4.09000669	     -3.39628369	    -13.48402023	     -1.13938804	     -2.84949535	     10.30817723	      7.42898044	     -6.36547205	     12.58589714	    -13.97403685	      6.73805505	      5.74027494	     -3.69426820	     -7.03106145
      1.65000000	    -12.70061417	      2.42086777	      2.57912016	     -0.12192053	      1.24986332	     -0.90200227	     37.41154769	      1.47505152	     16.53494518	     -4.85260293	     -3.56575884	    -13.29547828	     -1.30137402	     -2.93773237	     10.32542856	      7.48193328	     -6.90113618	     12.71204601	    -13.85000700	      6.91026312	      5.79464852	     -3.69542978	     -7.19088075
      1.65500000	    -12.64877403	      2.42630825	      2.74300460	     -0.11601714	      1.24935113	     -0.90185841	     37.53065539	      1.53329921	     16.52722078	     -5.60233770	     -3.88030532	    -13.24375197	     -1.32061894	     -3.16113600	     10.31308329	      7.52447688	     -7.40051469	     12.67893780	    -13.81935532	      6.96464327	      5.71493781	     -3.67551701	     -7.32962658
